<?xml version="1.0" encoding="UTF-8"?>
<!DOCTYPE svg PUBLIC "-//W3C//DTD SVG 1.1//EN" "http://www.w3.org/Graphics/SVG/1.1/DTD/svg11.dtd">
<!-- Creator: CorelDRAW X6 -->
<svg xmlns="http://www.w3.org/2000/svg" xml:space="preserve" width="15.7778in" height="1.40278in" version="1.1" style="shape-rendering:geometricPrecision; text-rendering:geometricPrecision; image-rendering:optimizeQuality; fill-rule:evenodd; clip-rule:evenodd"
viewBox="0 0 15778 1403"
 xmlns:xlink="http://www.w3.org/1999/xlink">
 <defs>
  <style type="text/css">
   <![CDATA[
    .fil0 {fill:#FEFEFE;fill-rule:nonzero}
   ]]>
  </style>
 </defs>
 <g id="Layer_x0020_1">
  <metadata id="CorelCorpID_0Corel-Layer"/>
  <path class="fil0" d="M0 675l0 -681 142 0c709,0 1419,0 2128,0 4221,0 8442,0 12664,0l844 0 0 681c-2,0 -5,-1 -7,0 -326,138 -662,213 -1017,165 -145,-20 -290,-52 -431,-90 -53,-14 -81,-9 -116,29 -235,256 -654,261 -912,33 -13,-11 -39,-16 -56,-12 -157,42 -313,70 -478,44 -166,-26 -322,-74 -461,-168 -36,-24 -72,-49 -111,-75 -107,252 -287,392 -550,407 -263,15 -458,-104 -585,-325 -524,240 -981,150 -1381,-253 -247,345 -642,463 -951,416 -169,192 -373,303 -632,302 -257,-1 -462,-109 -627,-301 -253,365 -594,555 -1008,557 -59,0 -120,-4 -182,-11 -498,-61 -829,-357 -1007,-825 -155,51 -303,59 -449,-19 -207,184 -449,275 -725,264 -275,-11 -506,-129 -702,-322 -12,11 -22,17 -29,26 -153,184 -456,236 -677,89 -10,-6 -46,6 -53,19 -130,235 -336,351 -597,354 -183,2 -347,-66 -474,-206 -15,-17 -50,-31 -70,-26 -162,46 -323,83 -492,100 -204,21 -402,2 -597,-43 -136,-31 -266,-84 -399,-127z"/>
 </g>
</svg>
