<?xml version="1.0" encoding="UTF-8"?>
<!DOCTYPE svg PUBLIC "-//W3C//DTD SVG 1.1//EN" "http://www.w3.org/Graphics/SVG/1.1/DTD/svg11.dtd">
<!-- Creator: CorelDRAW X6 -->
<svg xmlns="http://www.w3.org/2000/svg" xml:space="preserve" width="26.6528in" height="3.45833in" version="1.1" style="shape-rendering:geometricPrecision; text-rendering:geometricPrecision; image-rendering:optimizeQuality; fill-rule:evenodd; clip-rule:evenodd"
viewBox="0 0 26653 3458"
 xmlns:xlink="http://www.w3.org/1999/xlink">
 <defs>
  <style type="text/css">
   <![CDATA[
    .fil0 {fill:#FEFEFE;fill-rule:nonzero}
   ]]>
  </style>
 </defs>
 <g id="Layer_x0020_1">
  <metadata id="CorelCorpID_0Corel-Layer"/>
  <path class="fil0" d="M26662 3458c-2144,0 -4287,0 -6431,0 -6710,0 -13421,0 -20131,0 -32,0 -64,0 -100,0 0,-140 0,-275 0,-392 234,-50 465,-87 688,-152 144,-42 276,-124 411,-194 204,-105 417,-177 647,-192 121,-8 242,-30 362,-25 196,8 393,22 586,55 500,85 998,183 1497,275 51,9 103,16 162,25 152,-231 307,-468 476,-724 -130,17 -241,32 -364,48 165,-278 324,-546 487,-821 -84,11 -161,21 -251,32 174,-315 342,-617 520,-938 166,319 327,627 489,939 -77,12 -146,23 -223,36 176,287 347,564 525,855 -123,-22 -232,-42 -352,-63 148,232 291,457 441,694 73,-8 171,-15 268,-29 148,-21 296,-44 444,-68 177,-29 353,-62 530,-90 166,-27 332,-52 498,-76 171,-24 342,-47 514,-68 61,-8 123,-13 185,-15 263,-6 527,-24 789,-10 265,14 530,56 793,94 240,35 478,82 717,121 18,3 47,-14 58,-30 26,-39 44,-84 71,-139 -93,12 -176,23 -278,36 140,-215 271,-416 409,-628 -94,11 -177,21 -271,33 124,-210 242,-409 365,-617 -65,7 -118,12 -188,19 136,-242 265,-473 401,-716 130,250 251,482 374,719 -62,9 -114,17 -170,25 132,214 263,427 402,652 -94,-17 -175,-31 -269,-48 113,175 219,340 331,513 -70,8 -134,15 -209,24 62,101 129,197 182,299 33,64 81,94 145,95 158,4 317,15 473,-1 255,-26 509,-68 762,-110 248,-41 495,-92 742,-135 161,-28 323,-49 485,-73 155,-23 310,-47 465,-68 61,-8 123,-17 184,-14 58,3 89,-17 106,-69 11,-32 28,-61 47,-101 -121,16 -232,30 -367,48 187,-283 362,-550 543,-825 -123,16 -236,32 -363,49 164,-276 320,-539 485,-817 -89,13 -163,23 -251,35 174,-314 342,-617 520,-936l1 0c166,317 325,621 491,936 -77,11 -145,21 -225,32 176,285 349,565 528,854 -120,-22 -226,-41 -354,-64 153,237 294,456 441,685 -100,0 -186,0 -292,0 55,91 90,184 155,245 40,37 125,27 190,36 162,23 324,45 486,66 120,16 239,30 359,45 113,15 225,31 338,46 119,17 238,34 358,51 131,18 261,43 392,52 194,13 385,43 582,22 369,-39 728,-123 1087,-211 204,-50 409,-94 632,-146 -68,-11 -116,-18 -173,-27 101,-156 198,-306 298,-462 -81,13 -154,26 -242,40 125,-202 242,-392 364,-590 -54,-10 -101,-19 -153,-29 113,-215 224,-426 343,-652 126,225 244,436 367,656 -63,-8 -115,-14 -173,-21 113,188 222,372 339,566 -90,-12 -167,-22 -253,-34 88,134 170,260 254,383 9,13 34,21 52,22 140,6 281,5 421,16 136,11 271,33 406,51 142,19 284,37 426,59 141,22 282,48 422,73 196,35 392,74 588,107 181,30 363,59 546,82 154,19 309,28 464,44 165,17 330,37 496,54 105,11 209,20 314,29 121,10 241,19 362,28 0,139 0,278 0,417z"/>
 </g>
</svg>
